<mxfile host="65bd71144e">
    <diagram id="uGYxzC5oNQxdhQXKmMU4" name="Page-1">
        <mxGraphModel dx="2177" dy="551" grid="1" gridSize="10" guides="1" tooltips="1" connect="1" arrows="1" fold="1" page="1" pageScale="1" pageWidth="850" pageHeight="1100" math="0" shadow="0">
            <root>
                <mxCell id="0"/>
                <mxCell id="1" parent="0"/>
                <mxCell id="2" value="Language " style="swimlane;fontStyle=1;align=center;verticalAlign=top;childLayout=stackLayout;horizontal=1;startSize=26;horizontalStack=0;resizeParent=1;resizeParentMax=0;resizeLast=0;collapsible=1;marginBottom=0;" parent="1" vertex="1">
                    <mxGeometry x="-520" y="70" width="300" height="230" as="geometry"/>
                </mxCell>
                <mxCell id="3" value="-name : str&#10;- ability_read: str&#10;- ability_write: str&#10;- ability_speak: str" style="text;strokeColor=none;fillColor=none;align=left;verticalAlign=top;spacingLeft=4;spacingRight=4;overflow=hidden;rotatable=0;points=[[0,0.5],[1,0.5]];portConstraint=eastwest;" parent="2" vertex="1">
                    <mxGeometry y="26" width="300" height="64" as="geometry"/>
                </mxCell>
                <mxCell id="4" value="" style="line;strokeWidth=1;fillColor=none;align=left;verticalAlign=middle;spacingTop=-1;spacingLeft=3;spacingRight=3;rotatable=0;labelPosition=right;points=[];portConstraint=eastwest;strokeColor=inherit;" parent="2" vertex="1">
                    <mxGeometry y="90" width="300" height="8" as="geometry"/>
                </mxCell>
                <mxCell id="5" value="+ __init__(name: str, ability_read: &#10;str, ability_write: str, ability_speak: str): None&#10;+ __str__(): str&#10;+ __eq__(): bool&#10;+ __repr__(): str&#10;+ ability_read: str&#10;+ ability_write: str&#10;+ ability_speak: str" style="text;strokeColor=#FFFFFF;fillColor=none;align=left;verticalAlign=top;spacingLeft=4;spacingRight=4;overflow=hidden;rotatable=0;points=[[0,0.5],[1,0.5]];portConstraint=eastwest;" parent="2" vertex="1">
                    <mxGeometry y="98" width="300" height="132" as="geometry"/>
                </mxCell>
                <mxCell id="8" value="Education" style="swimlane;fontStyle=1;align=center;verticalAlign=top;childLayout=stackLayout;horizontal=1;startSize=26;horizontalStack=0;resizeParent=1;resizeParentMax=0;resizeLast=0;collapsible=1;marginBottom=0;" parent="1" vertex="1">
                    <mxGeometry x="-530" y="400" width="360" height="300" as="geometry"/>
                </mxCell>
                <mxCell id="9" value="- institution: str&#10;- from_date: str&#10;- to_date: str&#10;- certificate: str&#10;- field_of_study: str" style="text;strokeColor=none;fillColor=none;align=left;verticalAlign=top;spacingLeft=4;spacingRight=4;overflow=hidden;rotatable=0;points=[[0,0.5],[1,0.5]];portConstraint=eastwest;" parent="8" vertex="1">
                    <mxGeometry y="26" width="360" height="84" as="geometry"/>
                </mxCell>
                <mxCell id="10" value="" style="line;strokeWidth=1;fillColor=none;align=left;verticalAlign=middle;spacingTop=-1;spacingLeft=3;spacingRight=3;rotatable=0;labelPosition=right;points=[];portConstraint=eastwest;strokeColor=inherit;" parent="8" vertex="1">
                    <mxGeometry y="110" width="360" height="8" as="geometry"/>
                </mxCell>
                <mxCell id="11" value="+ __init__(institution: str, from_date: str, to_date: str, certificate: str,&#10; field_of_study: str): None&#10;+ __str__(): str&#10;+ __repr__(): str&#10;+ __eq__(): bool&#10;+  institution: str&#10;+ from_date: str&#10;+ to_date: str&#10;+ certificate: str&#10;+ field_of_study: str&#10;" style="text;strokeColor=#FFFFFF;fillColor=none;align=left;verticalAlign=top;spacingLeft=4;spacingRight=4;overflow=hidden;rotatable=0;points=[[0,0.5],[1,0.5]];portConstraint=eastwest;" parent="8" vertex="1">
                    <mxGeometry y="118" width="360" height="182" as="geometry"/>
                </mxCell>
                <mxCell id="13" value="Applicant" style="swimlane;fontStyle=1;align=center;verticalAlign=top;childLayout=stackLayout;horizontal=1;startSize=26;horizontalStack=0;resizeParent=1;resizeParentMax=0;resizeLast=0;collapsible=1;marginBottom=0;" parent="1" vertex="1">
                    <mxGeometry x="-520" y="790" width="360" height="350" as="geometry"/>
                </mxCell>
                <mxCell id="14" value="- name:str&#10;-dob: str&#10;- sex: str&#10;-  home_address: str&#10;- phone_home: str&#10;- mobile: str&#10;- email_address: str" style="text;strokeColor=none;fillColor=none;align=left;verticalAlign=top;spacingLeft=4;spacingRight=4;overflow=hidden;rotatable=0;points=[[0,0.5],[1,0.5]];portConstraint=eastwest;" parent="13" vertex="1">
                    <mxGeometry y="26" width="360" height="134" as="geometry"/>
                </mxCell>
                <mxCell id="16" value="+ __init__(name: str, dob: str, sex: str,  phone_home: str, mobile:&#10; str, email_address: str): None&#10;+ __str__(): str&#10;+ __repr__(): str&#10;+ __eq__(): bool&#10;+ full_name: str&#10;+ date_of_birth: str&#10;+ sex: str&#10;+ home_address: str&#10;+ home_phone_number: str&#10;+ mobile_phone_number: str&#10;+ email: str&#10;" style="text;strokeColor=#FFFFFF;fillColor=none;align=left;verticalAlign=top;spacingLeft=4;spacingRight=4;overflow=hidden;rotatable=0;points=[[0,0.5],[1,0.5]];portConstraint=eastwest;" parent="13" vertex="1">
                    <mxGeometry y="160" width="360" height="182" as="geometry"/>
                </mxCell>
                <mxCell id="15" value="" style="line;strokeWidth=1;fillColor=none;align=left;verticalAlign=middle;spacingTop=-1;spacingLeft=3;spacingRight=3;rotatable=0;labelPosition=right;points=[];portConstraint=eastwest;strokeColor=inherit;" parent="13" vertex="1">
                    <mxGeometry y="342" width="360" height="8" as="geometry"/>
                </mxCell>
                <mxCell id="21" value="AppliationForm" style="swimlane;fontStyle=1;align=center;verticalAlign=top;childLayout=stackLayout;horizontal=1;startSize=26;horizontalStack=0;resizeParent=1;resizeParentMax=0;resizeLast=0;collapsible=1;marginBottom=0;strokeColor=#FFFFFF;fillColor=none;" parent="1" vertex="1">
                    <mxGeometry x="395" y="420" width="455" height="128" as="geometry"/>
                </mxCell>
                <mxCell id="22" value="- app_id: int&#10;- applicant: Applicant&#10;- language : list [Language]&#10;- education: list [Education]&#10;" style="text;strokeColor=none;fillColor=none;align=left;verticalAlign=top;spacingLeft=4;spacingRight=4;overflow=hidden;rotatable=0;points=[[0,0.5],[1,0.5]];portConstraint=eastwest;" parent="21" vertex="1">
                    <mxGeometry y="26" width="455" height="94" as="geometry"/>
                </mxCell>
                <mxCell id="23" value="" style="line;strokeWidth=1;fillColor=none;align=left;verticalAlign=middle;spacingTop=-1;spacingLeft=3;spacingRight=3;rotatable=0;labelPosition=right;points=[];portConstraint=eastwest;strokeColor=inherit;" parent="21" vertex="1">
                    <mxGeometry y="120" width="455" height="8" as="geometry"/>
                </mxCell>
                <mxCell id="24" value="_init__(app_id: int, applicant: Applicant)&#10;+ add_language(language: Language)&#10;+ add_education(education: Education)&#10;+ update_language(index: int, read=None, write=None, speak=None)&#10;+ update_education(index: int, institution=None, from_date=None, &#10;to_date=None, certificate=None, field_of_study=None)&#10;+ __str__()&#10;+ app_ id: int&#10;+ applicant: Applicant&#10;+ language : list [Language]&#10;+ education: list [Education]&#10;" style="text;strokeColor=#FFFFFF;fillColor=none;align=left;verticalAlign=top;spacingLeft=4;spacingRight=4;overflow=hidden;rotatable=0;points=[[0,0.5],[1,0.5]];portConstraint=eastwest;fontColor=#FFFFFF;" parent="1" vertex="1">
                    <mxGeometry x="395" y="540" width="455" height="172" as="geometry"/>
                </mxCell>
                <mxCell id="25" value="ApplicationSystem&#10;" style="swimlane;fontStyle=1;align=center;verticalAlign=top;childLayout=stackLayout;horizontal=1;startSize=26;horizontalStack=0;resizeParent=1;resizeParentMax=0;resizeLast=0;collapsible=1;marginBottom=0;strokeColor=#FFFFFF;fontColor=#FFFFFF;fillColor=none;" parent="1" vertex="1">
                    <mxGeometry x="1110" y="440" width="400" height="220" as="geometry"/>
                </mxCell>
                <mxCell id="26" value="-  application: list[ApplicatipnForm]&#10;" style="text;strokeColor=none;fillColor=none;align=left;verticalAlign=top;spacingLeft=4;spacingRight=4;overflow=hidden;rotatable=0;points=[[0,0.5],[1,0.5]];portConstraint=eastwest;fontColor=#FFFFFF;" parent="25" vertex="1">
                    <mxGeometry y="26" width="400" height="54" as="geometry"/>
                </mxCell>
                <mxCell id="27" value="" style="line;strokeWidth=1;fillColor=none;align=left;verticalAlign=middle;spacingTop=-1;spacingLeft=3;spacingRight=3;rotatable=0;labelPosition=right;points=[];portConstraint=eastwest;strokeColor=inherit;fontColor=#FFFFFF;" parent="25" vertex="1">
                    <mxGeometry y="80" width="400" height="8" as="geometry"/>
                </mxCell>
                <mxCell id="28" value="+ __init__()&#10;+ add_application(application_form: ApplicationForm)&#10;+ search_application(app_id: int, email_address:str)&#10;+ update_application(app_id: int, updated_application_form: ApplicationForm)&#10;+ delete_application(app_id: int)&#10;+display_applications()&#10;" style="text;strokeColor=#FFFFFF;fillColor=none;align=left;verticalAlign=top;spacingLeft=4;spacingRight=4;overflow=hidden;rotatable=0;points=[[0,0.5],[1,0.5]];portConstraint=eastwest;fontColor=#FFFFFF;" parent="25" vertex="1">
                    <mxGeometry y="88" width="400" height="132" as="geometry"/>
                </mxCell>
                <mxCell id="30" value="" style="endArrow=diamondThin;endFill=1;endSize=24;html=1;fontColor=#FFFFFF;entryX=0;entryY=0.404;entryDx=0;entryDy=0;entryPerimeter=0;exitX=0.967;exitY=0.015;exitDx=0;exitDy=0;exitPerimeter=0;" parent="1" source="5" target="22" edge="1">
                    <mxGeometry width="160" relative="1" as="geometry">
                        <mxPoint x="-210" y="200" as="sourcePoint"/>
                        <mxPoint x="630" y="500" as="targetPoint"/>
                    </mxGeometry>
                </mxCell>
                <mxCell id="31" value="" style="endArrow=diamondThin;endFill=1;endSize=24;html=1;fontColor=#FFFFFF;entryX=0.011;entryY=0.029;entryDx=0;entryDy=0;entryPerimeter=0;exitX=1.012;exitY=0.148;exitDx=0;exitDy=0;exitPerimeter=0;" parent="1" source="11" target="24" edge="1">
                    <mxGeometry width="160" relative="1" as="geometry">
                        <mxPoint x="680" y="510" as="sourcePoint"/>
                        <mxPoint x="840" y="510" as="targetPoint"/>
                    </mxGeometry>
                </mxCell>
                <mxCell id="32" value="" style="endArrow=diamondThin;endFill=1;endSize=24;html=1;fontColor=#FFFFFF;exitX=0.991;exitY=0.722;exitDx=0;exitDy=0;exitPerimeter=0;" parent="1" edge="1" source="14">
                    <mxGeometry width="160" relative="1" as="geometry">
                        <mxPoint x="1080" y="430" as="sourcePoint"/>
                        <mxPoint x="390" y="650" as="targetPoint"/>
                    </mxGeometry>
                </mxCell>
                <mxCell id="33" value="" style="endArrow=diamondThin;endFill=0;endSize=24;html=1;fontColor=#FFFFFF;exitX=1.002;exitY=0.086;exitDx=0;exitDy=0;exitPerimeter=0;entryX=-0.002;entryY=0.183;entryDx=0;entryDy=0;entryPerimeter=0;" parent="1" source="24" target="28" edge="1">
                    <mxGeometry width="160" relative="1" as="geometry">
                        <mxPoint x="650" y="1100" as="sourcePoint"/>
                        <mxPoint x="1110" y="550" as="targetPoint"/>
                    </mxGeometry>
                </mxCell>
                <mxCell id="34" value="*" style="text;html=1;align=center;verticalAlign=middle;resizable=0;points=[];autosize=1;strokeColor=none;fillColor=none;" vertex="1" parent="1">
                    <mxGeometry x="-170" y="520" width="30" height="30" as="geometry"/>
                </mxCell>
                <mxCell id="35" value="*" style="text;html=1;align=center;verticalAlign=middle;resizable=0;points=[];autosize=1;strokeColor=none;fillColor=none;" vertex="1" parent="1">
                    <mxGeometry x="-220" y="150" width="30" height="30" as="geometry"/>
                </mxCell>
                <mxCell id="36" value="*" style="text;html=1;align=center;verticalAlign=middle;resizable=0;points=[];autosize=1;strokeColor=none;fillColor=none;" vertex="1" parent="1">
                    <mxGeometry x="-160" y="870" width="30" height="30" as="geometry"/>
                </mxCell>
            </root>
        </mxGraphModel>
    </diagram>
</mxfile>